<svg xmlns="http://www.w3.org/2000/svg" viewBox="0 0 864.29 370.48"><defs><style>.cls-1{fill:#eba822;}.cls-2{fill:#4865f4;}.cls-3{fill:#dc2e4e;}.cls-4,.cls-5,.cls-6{fill:#fff;}.cls-5,.cls-6{stroke:#fff;stroke-miterlimit:10;}.cls-5{stroke-width:17px;}</style></defs><title>Recurso 3</title><g id="Capa_2" data-name="Capa 2"><g id="Capa_1-2" data-name="Capa 1"><path class="cls-1" d="M848.15,21.27v45H672.58c-54.11,12-52.8,85.3-10.14,105.73a38.66,38.66,0,0,0,16.71,3.62H796.53a32.59,32.59,0,0,1,11,1.85c71.56,25.66,73.88,149.89,15.63,183.54a59.42,59.42,0,0,1-29.82,7.59H608.65l-8.38-17.43L608.65,330H778.44c.92,0,1.83,0,2.74-.07,25.83-1.37,45.7-23.41,45.82-49.11.1-23.74-2.63-37.05-13.73-49.18-10.39-11.36-25.36-17.42-40.75-17.42H670.6a56.75,56.75,0,0,1-22.81-4.67c-76.5-33.48-75.42-154,3.25-185a48.44,48.44,0,0,1,17.82-3.31L839.38,0Z"/><path class="cls-2" d="M301.85,15l-7.94,29.8,7.94,13.85H464c53.5,5.35,61.1,70.39,22.78,96.62a55.89,55.89,0,0,1-31.65,9.39H301.85L293.91,351.2l7.94,19.28h37.42V208.34H458.58a63,63,0,0,0,12.25-1.19C588.66,183.64,586.38,27.27,464,15Z"/><path class="cls-3" d="M7.47,20,0,39.85,7.47,57.43h155.9c103.14,4.84,80.72,116.92,0,112.24H7.47L0,189.3l7.47,17.79,155.9,162.13,45.85-.59-2.49-17.43L57.36,207.09h106c155.9,6.24,137.19-193.31,0-187.08Z"/><path class="cls-4" d="M0,2.58V40H155.9c103.14,4.84,80.72,116.93,0,112.25H0v37.41L155.9,351.79h49.89L49.89,189.65h106c155.9,6.24,137.19-193.31,0-187.07Z"/><path class="cls-4" d="M294.38.09V43.74H456.51c53.51,5.35,61.11,70.38,22.79,96.62a55.89,55.89,0,0,1-31.65,9.39H294.38v200.8H331.8V193.4H451.11a63,63,0,0,0,12.25-1.19C581.19,168.7,578.91,12.33,456.51.09Z"/><path class="cls-4" d="M840.68,0V45.53H673.75a49,49,0,0,0-29.69,9.53c-15.3,11.62-21.71,30.65-20.17,49.18,2.45,29.49,27.74,51.85,57.33,51.85H789.06a45.08,45.08,0,0,1,11,1.86c76.74,19.43,79,145.14,15.64,185.58-8.8,5.61-19.42,7.67-29.86,7.67H601.18v-39H771c.92,0,1.83,0,2.74-.07,25.83-1.39,45.7-23.67,45.81-49.66.13-29.41-4-43-22.58-57.94a42.83,42.83,0,0,0-26.9-9.39H668.72a76.75,76.75,0,0,1-45.23-14.4c-59-43-52.32-148.51,20.09-177.37A48.17,48.17,0,0,1,661.39,0Z"/><line class="cls-5" x1="360.45" y1="104.05" x2="438.92" y2="104.05"/><circle class="cls-4" cx="136.9" cy="103.97" r="29.55"/><polygon class="cls-6" points="762.89 89.01 720.62 109.55 762.89 125.77 756.49 137.66 703.97 118.2 679.63 131.18 679.63 118.2 693.72 112.79 679.63 107.39 679.63 94.41 702.69 103.06 753.92 78.19 762.89 89.01"/></g></g></svg>